<svg xmlns="http://www.w3.org/2000/svg" xmlns:xlink="http://www.w3.org/1999/xlink" width="335.125" height="164.829" viewBox="0 0 335.125 164.829">
  <defs>
    <clipPath id="clip-path">
      <rect width="282.37" height="117" fill="none"/>
    </clipPath>
    <linearGradient id="linear-gradient" x1="0.5" y1="0.5" x2="0.5" y2="0.895" gradientUnits="objectBoundingBox">
      <stop offset="0" stop-color="#9ad1e0" stop-opacity="0.082"/>
      <stop offset="1" stop-color="gray" stop-opacity="0"/>
    </linearGradient>
    <clipPath id="clip-path-2">
      <rect width="25" height="131" fill="none"/>
    </clipPath>
  </defs>
  <g id="Group_9" data-name="Group 9" transform="translate(-5376 -645.097)">
    <g id="Repeat_Grid_3" data-name="Repeat Grid 3" transform="translate(5410.587 683.879)" opacity="0.326" clip-path="url(#clip-path)">
      <g transform="translate(-242.587 -599.879)">
        <path id="Path_8" data-name="Path 8" d="M1328.587,601.379h297.37" transform="translate(-1086 -1)" fill="none" stroke="#85a1ab" stroke-width="1" opacity="0.309"/>
      </g>
      <g transform="translate(-242.587 -580.879)">
        <path id="Path_8-2" data-name="Path 8" d="M1328.587,601.379h297.37" transform="translate(-1086 -1)" fill="none" stroke="#85a1ab" stroke-width="1" opacity="0.309"/>
      </g>
      <g transform="translate(-242.587 -561.879)">
        <path id="Path_8-3" data-name="Path 8" d="M1328.587,601.379h297.37" transform="translate(-1086 -1)" fill="none" stroke="#85a1ab" stroke-width="1" opacity="0.309"/>
      </g>
      <g transform="translate(-242.587 -542.879)">
        <path id="Path_8-4" data-name="Path 8" d="M1328.587,601.379h297.37" transform="translate(-1086 -1)" fill="none" stroke="#85a1ab" stroke-width="1" opacity="0.309"/>
      </g>
      <g transform="translate(-242.587 -523.879)">
        <path id="Path_8-5" data-name="Path 8" d="M1328.587,601.379h297.37" transform="translate(-1086 -1)" fill="none" stroke="#85a1ab" stroke-width="1" opacity="0.309"/>
      </g>
      <g transform="translate(-242.587 -504.879)">
        <path id="Path_8-6" data-name="Path 8" d="M1328.587,601.379h297.37" transform="translate(-1086 -1)" fill="none" stroke="#85a1ab" stroke-width="1" opacity="0.309"/>
      </g>
      <g transform="translate(-242.587 -485.879)">
        <path id="Path_8-7" data-name="Path 8" d="M1328.587,601.379h297.37" transform="translate(-1086 -1)" fill="none" stroke="#85a1ab" stroke-width="1" opacity="0.309"/>
      </g>
    </g>
    <path id="Path_32" data-name="Path 32" d="M1317.142-370.656v-55.6h6.671l5.327,4.868,9.555,23.842,6.756,11.082,9.048-11.082,16.006-33.127,5.037,7.433,7.02-14.91,10.126,8.05,10.706,16.6,12.538-9.079,9.9,8.293,10.621-15.818h12.373l11.12-25.592,6.333-7.473,14.3,8.463,10.363-29.76,6.419,14.434,13.259,10.21v21.67l8.716,30.7,13.1-15.787,5.977-14.91,6.713-.7,4.625-30.158,21.688-44.422c.112-.229,20.077-6.522,20.077-6.522s-.309,149.927,0,149.294" transform="translate(4104.465 1180.524)" fill="url(#linear-gradient)"/>
    <path id="Path_33" data-name="Path 33" d="M1317.142-426.253h6.671l5.327,4.868,9.555,23.842,6.756,11.082,9.048-11.082,16.006-33.127,5.037,7.433,7.02-14.91,10.126,8.05,10.706,16.6,12.538-9.079,9.9,8.293,10.621-15.818h12.373l11.12-25.592,6.333-7.473,14.3,8.463,10.363-29.76,6.419,14.434,13.259,10.21v21.67l8.716,30.7,13.1-15.787,5.977-14.91,6.713-.7,4.625-30.158,21.688-44.422c.112-.229,20.077-6.522,20.077-6.522" transform="translate(4104.465 1180.524)" fill="none" stroke="#89ebff" stroke-width="1"/>
    <g id="Repeat_Grid_4" data-name="Repeat Grid 4" transform="translate(5376 677)" clip-path="url(#clip-path-2)">
      <g transform="translate(-208 -593)">
        <text id="_0000" data-name="0000" transform="translate(208 603)" fill="#b8e8ed" font-size="8" font-family="Futura-Medium, Futura" font-weight="500" opacity="0.432"><tspan x="0" y="0">0000</tspan></text>
      </g>
      <g transform="translate(-208 -574)">
        <text id="_0000-2" data-name="0000" transform="translate(208 603)" fill="#b8e8ed" font-size="8" font-family="Futura-Medium, Futura" font-weight="500" opacity="0.432"><tspan x="0" y="0">0000</tspan></text>
      </g>
      <g transform="translate(-208 -555)">
        <text id="_0000-3" data-name="0000" transform="translate(208 603)" fill="#b8e8ed" font-size="8" font-family="Futura-Medium, Futura" font-weight="500" opacity="0.432"><tspan x="0" y="0">0000</tspan></text>
      </g>
      <g transform="translate(-208 -536)">
        <text id="_0000-4" data-name="0000" transform="translate(208 603)" fill="#b8e8ed" font-size="8" font-family="Futura-Medium, Futura" font-weight="500" opacity="0.432"><tspan x="0" y="0">0000</tspan></text>
      </g>
      <g transform="translate(-208 -517)">
        <text id="_0000-5" data-name="0000" transform="translate(208 603)" fill="#b8e8ed" font-size="8" font-family="Futura-Medium, Futura" font-weight="500" opacity="0.432"><tspan x="0" y="0">0000</tspan></text>
      </g>
      <g transform="translate(-208 -498)">
        <text id="_0000-6" data-name="0000" transform="translate(208 603)" fill="#b8e8ed" font-size="8" font-family="Futura-Medium, Futura" font-weight="500" opacity="0.432"><tspan x="0" y="0">0000</tspan></text>
      </g>
      <g transform="translate(-208 -479)">
        <text id="_0000-7" data-name="0000" transform="translate(208 603)" fill="#b8e8ed" font-size="8" font-family="Futura-Medium, Futura" font-weight="500" opacity="0.432"><tspan x="0" y="0">0000</tspan></text>
      </g>
    </g>
  </g>
</svg>
